# Blender 4.2.0
# www.blender.org
mtllib LetterT.mtl
o Cube.006
v -0.885096 4.276914 -23.198141
v -0.885096 2.531889 -23.338743
v -0.885096 4.230731 -24.952263
v 0.885096 4.276914 -23.198141
v 0.885096 2.531890 -23.338743
v 0.885096 4.230732 -24.952263
v 0.885096 4.199654 -26.132687
v 0.885096 2.725217 -24.949102
v 0.885096 2.742793 -26.084930
v 0.885096 -0.519014 -24.632748
v -0.885096 2.725217 -24.949102
v -0.885096 2.742792 -26.084930
v -0.885096 -0.519014 -24.632748
v -0.885096 -0.501439 -26.506735
v 0.885096 -0.501439 -26.506735
v -0.885096 2.549465 -27.818316
v -0.885096 4.199654 -26.132687
v -0.885096 4.153887 -27.871042
v 0.885096 4.153887 -27.871042
v 0.885096 2.549465 -27.818316
v -0.885096 4.276914 -23.198141
v -0.885096 2.531889 -23.338743
v -0.885096 4.230731 -24.952263
v 0.885096 4.276914 -23.198141
v 0.885096 2.531890 -23.338743
v 0.885096 4.230732 -24.952263
v 0.885096 4.199654 -26.132687
v 0.885096 2.725217 -24.949102
v 0.885096 2.742793 -26.084930
v 0.885096 -0.519014 -24.632748
v -0.885096 2.725217 -24.949102
v -0.885096 2.742792 -26.084930
v -0.885096 -0.519014 -24.632748
v -0.885096 -0.501439 -26.506735
v 0.885096 -0.501439 -26.506735
v -0.885096 2.549465 -27.818316
v -0.885096 4.199654 -26.132687
v -0.885096 4.153887 -27.871042
v 0.885096 4.153887 -27.871042
v 0.885096 2.549465 -27.818316
vn 1.0000 -0.0000 -0.0000
vn -1.0000 -0.0000 -0.0000
vn -0.0000 0.0803 -0.9968
vn -0.0000 -0.9997 0.0263
vn -0.0000 0.9929 0.1192
vn -0.0000 -0.0971 -0.9953
vn -0.0000 1.0000 0.0094
vn -0.0000 -0.1289 0.9917
vn -0.0000 0.9938 -0.1108
vn -0.0000 0.0328 0.9995
vt 0.694138 0.311224
vt 0.706334 0.197376
vt 0.811288 0.212788
vt 0.808903 0.311224
vt 0.999866 0.622582
vt 0.885102 0.622582
vt 0.882717 0.524146
vt 0.987670 0.508734
vt 0.807871 0.622582
vt 0.808486 0.527250
vt 0.897816 0.311492
vt 0.775324 0.315866
vt 0.885519 0.215892
vt 0.886133 0.311224
vt 0.796189 0.000134
vt 0.918681 0.004508
vt 0.999181 0.206236
vt 0.999866 0.311224
vt 0.694138 0.622582
vt 0.694824 0.517594
vt 0.610681 0.638576
vt 0.464814 0.745123
vt 0.377409 0.500760
vt 0.412165 0.462349
vt 0.244267 0.745123
vt 0.326913 0.481394
vt 0.134762 0.693080
vt 0.287672 0.456865
vt 0.693871 0.487713
vt 0.447639 0.412371
vt 0.653807 0.066078
vt 0.435441 0.329349
vt 0.388331 0.000134
vt 0.380382 0.320980
vt 0.111901 0.181563
vt 0.315724 0.404132
vt 0.011199 0.358706
vt 0.252551 0.412084
vt 0.000134 0.556393
vt 0.250067 0.440317
s 0
usemtl m_letters
f 1/1/1 2/2/1 11/3/1 3/4/1
f 4/5/2 6/6/2 8/7/2 5/8/2
f 8/7/2 6/6/2 7/9/2 9/10/2
f 10/11/2 8/7/2 9/10/2 15/12/2
f 11/3/1 12/13/1 17/14/1 3/4/1
f 13/15/1 14/16/1 12/13/1 11/3/1
f 12/13/1 16/17/1 18/18/1 17/14/1
f 9/10/2 7/9/2 19/19/2 20/20/2
f 22/21/3 21/22/3 24/23/3 25/24/3
f 21/22/4 23/25/4 26/26/4 24/23/4
f 23/25/4 37/27/4 27/28/4 26/26/4
f 31/29/5 22/21/5 25/24/5 28/30/5
f 33/31/6 31/29/6 28/30/6 30/32/6
f 34/33/7 33/31/7 30/32/7 35/34/7
f 32/35/8 34/33/8 35/34/8 29/36/8
f 36/37/9 32/35/9 29/36/9 40/38/9
f 37/27/4 38/39/4 39/40/4 27/28/4
f 38/39/10 36/37/10 40/38/10 39/40/10
