# Blender 4.2.0
# www.blender.org
mtllib Timecrate3.mtl
o Cube.004
v 1.618394 3.600746 -13.618394 0.5804 0.5804 0.5804
v 1.618394 0.363957 -13.618394 0.5804 0.5804 0.5804
v 1.618394 3.600746 -10.381606 0.5804 0.5804 0.5804
v 1.618394 0.363957 -10.381606 0.5804 0.5804 0.5804
v -1.618394 3.600746 -13.618394 0.5804 0.5804 0.5804
v -1.618394 0.363957 -13.618394 0.5804 0.5804 0.5804
v -1.618394 3.600746 -10.381606 0.5804 0.5804 0.5804
v -1.618394 0.363957 -10.381606 0.5804 0.5804 0.5804
vn -0.0000 1.0000 -0.0000
vn -0.0000 -0.0000 1.0000
vn -1.0000 -0.0000 -0.0000
vn -0.0000 -1.0000 -0.0000
vn 1.0000 -0.0000 -0.0000
vn -0.0000 -0.0000 -1.0000
vt 0.500022 0.000022
vt 0.999935 0.000022
vt 0.999935 0.499935
vt 0.500022 0.499935
vt 0.500000 -0.000043
vt 0.500000 0.499914
vt 0.000043 0.499914
vt 0.000043 -0.000043
vt 0.499978 0.000108
vt 0.499978 0.500022
vt 0.000065 0.500022
vt 0.000065 0.000108
vt 0.500108 0.000022
vt 1.000022 0.000022
vt 1.000022 0.499935
vt 0.500108 0.499935
vt 0.500000 0.000000
vt 0.500000 0.499957
vt 0.000043 0.499957
vt 0.000043 0.000000
vt 0.500000 0.000043
vt 0.500000 0.500000
vt 0.000043 0.500000
vt 0.000043 0.000043
s 0
usemtl m_timecrate
f 1/1/1 5/2/1 7/3/1 3/4/1
f 4/5/2 3/6/2 7/7/2 8/8/2
f 8/9/3 7/10/3 5/11/3 6/12/3
f 6/13/4 2/14/4 4/15/4 8/16/4
f 2/17/5 1/18/5 3/19/5 4/20/5
f 6/21/6 5/22/6 1/23/6 2/24/6
