# Blender 4.2.0
# www.blender.org
mtllib Wumpafruit.mtl
o Sphere
v -0.015577 2.123800 -16.300867 0.5569 0.5569 0.5569
v -0.015577 1.416693 -16.593760 0.5569 0.5569 0.5569
v -0.015577 0.709587 -16.300867 0.7490 0.2667 0.2432
v 0.596795 2.123800 -15.947313 0.5569 0.5569 0.5569
v 0.850448 1.416693 -16.093760 0.5569 0.5569 0.5569
v 0.596795 0.709587 -15.947313 0.7568 0.2471 0.2235
v 0.596795 2.123800 -15.240206 0.5569 0.5569 0.5569
v 0.850448 1.416693 -15.093760 0.5569 0.5569 0.5569
v 0.596795 0.709587 -15.240206 0.7568 0.2471 0.2235
v -0.015577 2.123800 -14.886653 0.5569 0.5569 0.5569
v -0.015577 1.416693 -14.593760 0.5569 0.5569 0.5569
v -0.015577 0.709587 -14.886653 0.7529 0.2510 0.2275
v -0.015577 0.416693 -15.593760 0.7568 0.2471 0.2235
v -0.015577 2.416693 -15.593760 0.5569 0.5569 0.5569
v -0.627950 2.123800 -15.240207 0.5569 0.5569 0.5569
v -0.881603 1.416693 -15.093760 0.5569 0.5569 0.5569
v -0.627950 0.709587 -15.240207 0.7294 0.3176 0.3059
v -0.627949 2.123800 -15.947313 0.5569 0.5569 0.5569
v -0.881602 1.416693 -16.093760 0.5569 0.5569 0.5569
v -0.627949 0.709587 -15.947313 0.7216 0.3333 0.3176
v -0.015577 2.416693 -15.593760 0.5569 0.5569 0.5569
v -0.076573 2.953869 -15.599332 0.5569 0.5569 0.5569
v 0.649193 2.688007 -16.045393 0.5569 0.5569 0.5569
v -0.197393 3.305259 -16.718933 0.5569 0.5569 0.5569
vn 0.4706 -0.3377 -0.8152
vn 0.2157 0.9021 -0.3737
vn 0.2157 -0.9021 -0.3737
vn 0.4706 0.3377 -0.8152
vn 0.4315 0.9021 -0.0000
vn 0.4315 -0.9021 -0.0000
vn 0.9413 0.3377 -0.0000
vn 0.9413 -0.3377 -0.0000
vn 0.4706 -0.3377 0.8152
vn 0.2157 0.9021 0.3737
vn 0.2157 -0.9021 0.3737
vn 0.4706 0.3377 0.8152
vn -0.4706 -0.3377 0.8152
vn -0.2157 0.9021 0.3737
vn -0.2157 -0.9021 0.3737
vn -0.4706 0.3377 0.8152
vn -0.9413 -0.3377 -0.0000
vn -0.4315 0.9021 -0.0000
vn -0.4315 -0.9021 -0.0000
vn -0.9413 0.3377 -0.0000
vn -0.4706 -0.3377 -0.8152
vn -0.2157 0.9021 -0.3737
vn -0.2157 -0.9021 -0.3737
vn -0.4706 0.3377 -0.8152
vn 0.4528 0.8635 0.2221
vn 0.5408 0.0701 0.8382
vt 0.460583 0.139094
vt 0.710533 0.139094
vt 0.710533 0.305728
vt 0.460583 0.305728
vt 0.460533 0.305728
vt 0.210583 0.222411
vt 0.460533 0.139094
vt 0.210633 0.222411
vt 0.710483 0.305728
vt 0.710483 0.139094
vt 0.460533 0.305728
vt 0.210583 0.222411
vt 0.460533 0.139094
vt 0.210633 0.222411
vt 0.460583 0.139094
vt 0.710483 0.305728
vt 0.710483 0.139094
vt 0.710533 0.139094
vt 0.460583 0.139069
vt 0.710533 0.139069
vt 0.710533 0.305703
vt 0.460583 0.305703
vt 0.460533 0.305703
vt 0.210583 0.222386
vt 0.460533 0.139069
vt 0.210633 0.222386
vt 0.710483 0.305703
vt 0.710483 0.139069
vt 0.460583 0.139119
vt 0.710533 0.139119
vt 0.710533 0.305753
vt 0.460583 0.305753
vt 0.460533 0.305753
vt 0.210583 0.222436
vt 0.460533 0.139119
vt 0.210633 0.222436
vt 0.710483 0.305753
vt 0.710483 0.139119
vt 0.710533 0.305728
vt 0.460583 0.305728
vt 0.460533 0.305728
vt 0.210583 0.222411
vt 0.210633 0.222411
vt 0.710483 0.305728
vt 0.710483 0.139094
vt 0.460533 0.305728
vt 0.210583 0.222411
vt 0.460533 0.139094
vt 0.210633 0.222411
vt 0.710483 0.139094
vt 0.500000 1.000000
vt 1.000000 0.500000
vt 1.000000 1.000000
vt 0.500000 0.500000
s 0
usemtl m_fruit
f 3/1/1 2/2/1 5/3/1 6/4/1
f 1/5/2 14/6/2 4/7/2
f 13/8/3 3/1/3 6/4/3
f 2/9/4 1/5/4 4/7/4 5/10/4
f 4/11/5 14/12/5 7/13/5
f 13/14/6 6/15/6 9/4/6
f 5/16/7 4/11/7 7/13/7 8/17/7
f 6/15/8 5/18/8 8/3/8 9/4/8
f 9/19/9 8/20/9 11/21/9 12/22/9
f 7/23/10 14/24/10 10/25/10
f 13/26/11 9/19/11 12/22/11
f 8/27/12 7/23/12 10/25/12 11/28/12
f 12/29/13 11/30/13 16/31/13 17/32/13
f 10/33/14 14/34/14 15/35/14
f 13/36/15 12/29/15 17/32/15
f 11/37/16 10/33/16 15/35/16 16/38/16
f 17/1/17 16/2/17 19/39/17 20/40/17
f 15/41/18 14/42/18 18/7/18
f 13/43/19 17/1/19 20/40/19
f 16/44/20 15/41/20 18/7/20 19/45/20
f 20/15/21 19/18/21 2/3/21 3/4/21
f 18/46/22 14/47/22 1/48/22
f 13/49/23 20/15/23 3/4/23
f 19/44/24 18/46/24 1/48/24 2/50/24
f 22/51/25 23/52/25 24/53/25
f 23/52/26 22/51/26 21/54/26
